HIERARCHY
ROOT root     
{
	OFFSET 0.0000 0.0000 0.0000
	CHANNELS 6 Xposition Yposition Zposition Zrotation Yrotation Xrotation
	JOINT pelvis   
	{
		OFFSET 0.0000 0.0000 0.0000
		CHANNELS 3 Zrotation Yrotation Xrotation
		JOINT thorax   
		{
			OFFSET 0.0000 23.0750 -5.0000
			CHANNELS 3 Zrotation Yrotation Xrotation
			JOINT rclavicle
			{
				OFFSET 0.0000 28.0009 0.0000
				CHANNELS 3 Zrotation Yrotation Xrotation
				JOINT rhumerus 
				{
					OFFSET -18.5725 5.5939 0.0000
					CHANNELS 3 Zrotation Yrotation Xrotation
					JOINT rradius  
					{
						OFFSET -24.8459 0.0000 0.0000
						CHANNELS 3 Zrotation Yrotation Xrotation
						JOINT rhand    
						{
							OFFSET -24.5477 0.0000 0.0000
							CHANNELS 3 Zrotation Yrotation Xrotation
							End Site
							{
								OFFSET -8.1826 0.0000 0.0000
							}
						}
					}
				}
			}
			JOINT lclavicle
			{
				OFFSET 0.0000 28.0009 0.0000
				CHANNELS 3 Zrotation Yrotation Xrotation
				JOINT lhumerus 
				{
					OFFSET 18.5725 5.5939 0.0000
					CHANNELS 3 Zrotation Yrotation Xrotation
					JOINT lradius  
					{
						OFFSET 24.8459 0.0000 0.0000
						CHANNELS 3 Zrotation Yrotation Xrotation
						JOINT lhand    
						{
							OFFSET 24.5477 0.0000 0.0000
							CHANNELS 3 Zrotation Yrotation Xrotation
							End Site
							{
								OFFSET 8.1826 0.0000 0.0000
							}
						}
					}
				}
			}
			JOINT head     
			{
				OFFSET 0.0000 35.2030 0.0000
				CHANNELS 3 Zrotation Yrotation Xrotation
				End Site
				{
					OFFSET 0.0000 11.7343 0.0000
				}
			}
		}
		JOINT rfemur   
		{
			OFFSET -8.2817 0.0000 0.0000
			CHANNELS 3 Zrotation Yrotation Xrotation
			JOINT rtibia   
			{
				OFFSET 0.0000 -43.3627 0.0000
				CHANNELS 3 Zrotation Yrotation Xrotation
				JOINT rfoot    
				{
					OFFSET 0.0000 -38.2947 0.0000
					CHANNELS 3 Zrotation Yrotation Xrotation
					JOINT rtoes    
					{
						OFFSET 0.0000 0.0000 16.6054
						CHANNELS 3 Zrotation Yrotation Xrotation
						End Site
						{
							OFFSET 0.0000 0.0000 5.5351
						}
					}
				}
			}
		}
		JOINT lfemur   
		{
			OFFSET 8.2817 0.0000 0.0000
			CHANNELS 3 Zrotation Yrotation Xrotation
			JOINT ltibia   
			{
				OFFSET 0.0000 -43.3627 0.0000
				CHANNELS 3 Zrotation Yrotation Xrotation
				JOINT lfoot    
				{
					OFFSET 0.0000 -38.2947 0.0000
					CHANNELS 3 Zrotation Yrotation Xrotation
					JOINT ltoes    
					{
						OFFSET 0.0000 0.0000 16.6054
						CHANNELS 3 Zrotation Yrotation Xrotation
						End Site
						{
							OFFSET 0.0000 0.0000 5.5351
						}
					}
				}
			}
		}
	}
}
MOTION
Frames: 15
Frame Time: .0333333
94.855 71.019 17.872 103.249 -88.3456 -32.2102 0 -0 0 -1.93235 -6.36837 23.617 21.7431 -8.22615 1.73677e-05 55.914 -22.5601 -30.626 -0 2.69153 -0 -3.28904 18.1893 -0.526619 -15.2206 10.4751 9.32539e-05 -58.7883 30.7131 -8.46659 0 -10.7206 0 2.20063 -6.19098 -0.118995 2.02745 0.0971874 -47.736 11.6406 -6.97101 -115.146 -0 -0 70.4087 -1.09003e-05 -5.3038 -11.5264 1.06271 3.67151e-06 -56.5004 -11.8238 0.850862 -114.238 -0 -0 70.184 5.14571e-05 9.98744 -15.1404 -2.6335 1.56858e-05 -39.021 
94.714 70.993 17.876 103.282 -88.3609 -32.0851 0 -0 0 -1.94159 -6.38458 23.5638 21.7531 -8.3073 -4.47215e-05 55.9811 -22.3616 -30.5063 -1.49194e-08 2.82876 -6.04258e-07 -3.16735 18.1621 -0.50642 -15.2455 10.5137 7.5929e-05 -58.8316 30.6477 -8.23464 5.95867e-08 -11.1155 -6.12362e-07 2.11316 -6.1494 -0.113498 2.03934 0.116288 -47.8013 11.6534 -6.96944 -115.258 -0 -0 70.5363 -1.90466e-05 -5.3167 -11.6984 1.081 -6.72377e-06 -56.5366 -11.8724 0.837522 -114.346 -0 -0 70.3077 8.49271e-05 9.98043 -15.3075 -2.66006 -9.06053e-06 -39.0836 
94.571 70.964 17.88 103.34 -88.3429 -31.9658 0 -0 0 -1.95136 -6.40337 23.5054 21.769 -8.39708 3.88663e-05 56.0439 -22.143 -30.3867 -0 2.97478 -0 -3.04011 18.115 -0.484698 -15.2725 10.5556 -2.75895e-05 -58.8826 30.5681 -8.03065 0 -11.5221 0 2.03432 -6.11161 -0.108601 2.0452 0.141093 -47.8784 11.6645 -6.9687 -115.379 -0 -0 70.6745 -2.65262e-05 -5.32232 -11.8793 1.09869 3.94928e-06 -56.5559 -11.9247 0.824947 -114.462 -0 -0 70.4428 3.36645e-05 9.96208 -15.4788 -2.68377 2.43722e-05 -39.1587 
94.424 70.933 17.883 103.402 -88.3178 -31.8419 0 -0 0 -1.96137 -6.4265 23.4433 21.7936 -8.49632 -4.81426e-05 56.1055 -21.9018 -30.268 -0 3.13334 -0 -2.91043 18.0461 -0.462302 -15.2998 10.6014 -7.30971e-07 -58.9462 30.4704 -7.86429 0 -11.9333 0 1.96433 -6.0752 -0.104202 2.04371 0.170298 -47.9689 11.674 -6.97005 -115.506 -0 -0 70.8212 -2.0204e-05 -5.31965 -12.0662 1.11508 4.50345e-08 -56.5633 -11.9796 0.812121 -114.586 -0 -0 70.5858 4.67317e-06 9.93125 -15.6504 -2.70431 1.34227e-05 -39.2554 
94.273 70.901 17.887 103.351 -88.3318 -31.6174 0 -0 0 -1.97133 -6.45575 23.377 21.8244 -8.6037 -0.000104713 56.1659 -21.6329 -30.1639 -0 3.30205 -0 -2.77767 17.9549 -0.438908 -15.3281 10.6534 1.20145e-05 -59.0229 30.3494 -7.7401 6.64547e-08 -12.3459 -6.14426e-07 1.90252 -6.03696 -0.100296 2.03366 0.202294 -48.0786 11.6822 -6.97389 -115.641 -0 -0 70.9755 9.39324e-06 -5.30997 -12.2553 1.1302 -4.15131e-06 -56.5695 -12.0368 0.798973 -114.717 -0 -0 70.7382 2.32358e-05 9.8892 -15.8216 -2.72139 1.18261e-05 -39.378 
94.118 70.867 17.89 103.373 -88.3205 -31.4524 0 -0 0 -1.98012 -6.49186 23.3047 21.8609 -8.71865 -6.60569e-06 56.2273 -21.3341 -30.0696 -0 3.48516 -0 -2.64892 17.8417 -0.415901 -15.3579 10.7115 -2.55355e-05 -59.1133 30.2001 -7.66187 6.87516e-08 -12.754 -6.15161e-07 1.84526 -5.99451 -0.0966039 2.01508 0.234682 -48.2075 11.6904 -6.97976 -115.783 -0 -0 71.1391 -1.8499e-05 -5.29522 -12.4422 1.14402 -5.12706e-06 -56.5833 -12.0957 0.784975 -114.852 -0 -0 70.8947 5.17891e-05 9.83888 -15.9929 -2.73572 -3.5175e-06 -39.5294 
93.957 70.831 17.894 103.297 -88.3068 -31.1863 0 -0 0 -1.98664 -6.53513 23.2292 21.9037 -8.83856 -1.55965e-05 56.2912 -21.0021 -30.0027 -0 3.67912 -0 -2.52423 17.7157 -0.393396 -15.3889 10.7767 -1.45506e-05 -59.2162 30.0163 -7.62871 0 -13.1507 0 1.79094 -5.94441 -0.0930028 1.98747 0.264294 -48.3591 11.6985 -6.98775 -115.926 -0 -0 71.3065 -1.4663e-05 -5.27897 -12.6279 1.15721 -4.59638e-06 -56.6101 -12.1549 0.770439 -114.989 -0 -0 71.0584 5.26766e-07 9.78516 -16.1632 -2.74868 1.73102e-05 -39.7048 
93.79 70.795 17.897 103.207 -88.3121 -30.9098 0 -0 0 -1.99089 -6.58751 23.1439 21.9501 -8.9611 -8.89174e-05 56.3619 -20.6416 -29.9345 -0 3.89307 -0 -2.41908 17.578 -0.374099 -15.4236 10.8478 -2.59055e-05 -59.3346 29.7966 -7.64905 0 -13.5303 0 1.72852 -5.89047 -0.0889012 1.95188 0.289792 -48.5279 11.7062 -6.99674 -116.07 -0 -0 71.4791 9.15056e-06 -5.26663 -12.8102 1.1708 5.45949e-06 -56.6657 -12.2133 0.753813 -115.127 -0 -0 71.2237 -6.29926e-06 9.73556 -16.3332 -2.76251 1.60623e-05 -39.9051 
93.615 70.755 17.899 103.12 -88.2958 -30.6468 0 -0 0 -1.98958 -6.6454 23.0881 21.987 -9.08067 2.34318e-05 56.4596 -20.2496 -29.8594 -2.18757e-08 4.14237 -6.04894e-07 -2.34467 17.4299 -0.359497 -15.4581 10.9234 3.15358e-05 -59.4734 29.532 -7.72644 0 -13.8996 0 1.64489 -5.83784 -0.0838988 1.90643 0.3105 -48.723 11.7172 -7.00692 -116.185 -0 -0 71.6519 -1.49251e-05 -5.26156 -12.9927 1.1861 4.21697e-08 -56.7809 -12.2659 0.746214 -115.241 -0 -0 71.3968 5.09421e-06 9.69429 -16.5153 -2.7802 -1.8683e-06 -40.1025 
93.437 70.718 17.9 103.015 -88.2489 -30.3108 0 -0 0 -1.98531 -6.70999 22.9578 22.0499 -9.20413 2.03429e-05 56.538 -19.8313 -29.8522 -0 4.36388 -0 -2.26905 17.3189 -0.345606 -15.5071 11.0048 -4.43317e-05 -59.5967 29.2185 -7.83022 0 -14.2045 0 1.58526 -5.76182 -0.0798032 1.86018 0.315396 -48.9197 11.7219 -7.012 -116.34 -0 -0 71.8274 1.91654e-05 -5.26994 -13.1809 1.20492 6.38046e-07 -56.8428 -12.3174 0.721889 -115.388 -0 -0 71.5577 -3.02039e-05 9.67144 -16.6882 -2.80167 -6.49471e-06 -40.3346 
93.248 70.678 17.9 102.789 -88.2885 -29.9124 0 -0 0 -1.97436 -6.77994 22.8487 22.1012 -9.31921 1.03016e-05 56.6486 -19.3887 -29.81 -0 4.62562 -0 -2.24009 17.2135 -0.339092 -15.5593 11.0879 -3.98519e-05 -59.7342 28.8528 -7.99951 0 -14.4816 0 1.49677 -5.69626 -0.074498 1.80638 0.315305 -49.132 11.7262 -7.01587 -116.461 -0 -0 71.9994 1.30098e-05 -5.29505 -13.376 1.22818 -3.27594e-06 -56.9638 -12.3582 0.706277 -115.508 -0 -0 71.7239 -3.59314e-05 9.66988 -16.875 -2.83176 -2.97193e-06 -40.5504 
93.051 70.637 17.898 102.592 -88.2557 -29.5136 0 -0 0 -1.9569 -6.85032 22.7339 22.1531 -9.42975 2.86431e-05 56.7746 -18.9235 -29.7652 -2.59127e-08 4.90214 -6.05367e-07 -2.24271 17.1394 -0.338012 -15.6197 11.1699 4.77662e-05 -59.8722 28.4234 -8.21854 0 -14.707 0 1.40554 -5.63209 -0.0690965 1.74988 0.304882 -49.3533 11.7243 -7.01644 -116.564 -0 -0 72.1708 4.60825e-06 -5.33834 -13.5878 1.25759 -2.62988e-07 -57.0879 -12.3877 0.693903 -115.614 -0 -0 71.892 -1.74791e-05 9.6916 -17.074 -2.87065 -1.52996e-05 -40.7524 
92.845 70.595 17.894 102.316 -88.2724 -29.0621 0 -0 0 -1.93272 -6.92216 22.6071 22.2062 -9.5334 2.98088e-05 56.919 -18.4363 -29.7092 -0 5.19276 -0 -2.27884 17.0976 -0.342606 -15.6915 11.2508 8.92277e-06 -60.0029 27.9287 -8.49512 0 -14.8722 0 1.31218 -5.57752 -0.0638994 1.69062 0.288504 -49.5785 11.713 -7.01422 -116.648 -0 -0 72.3419 -3.91494e-06 -5.40214 -13.8194 1.29401 2.39955e-07 -57.2108 -12.4018 0.683529 -115.708 -0 -0 72.0599 3.98467e-05 9.73859 -17.2842 -2.91914 1.87357e-07 -40.9399 
92.629 70.553 17.888 101.999 -88.2744 -28.5679 0 -0 0 -1.90098 -6.99344 22.4683 22.2595 -9.63034 -4.22912e-05 57.0805 -17.9258 -29.6445 -0 5.4939 -0 -2.34428 17.0927 -0.352318 -15.7764 11.3291 -1.83134e-05 -60.1238 27.3591 -8.82998 0 -14.9716 0 1.22608 -5.53778 -0.0592983 1.62836 0.269078 -49.8098 11.6888 -7.00956 -116.712 -0 -0 72.5126 -1.92161e-05 -5.4865 -14.0729 1.33795 -1.91549e-05 -57.3203 -12.3979 0.676926 -115.788 -0 -0 72.2309 -4.77637e-05 9.80896 -17.5049 -2.97682 -2.11552e-05 -41.1137 
92.402 70.51 17.88 101.643 -88.2486 -28.0323 0 -0 0 -1.86498 -7.06085 22.323 22.317 -9.72361 3.35572e-05 57.2538 -17.3901 -29.5589 -3.07281e-08 5.80519 -6.06042e-07 -2.43585 17.1214 -0.366719 -15.8717 11.4027 -8.02127e-05 -60.2302 26.71 -9.22138 8.15968e-08 -15.0027 -6.19673e-07 1.16051 -5.51392 -0.0559011 1.56549 0.248291 -50.0479 11.6437 -7.00524 -116.748 -0 -0 72.6866 -1.32516e-05 -5.5888 -14.3531 1.38965 2.1258e-05 -57.3979 -12.374 0.6738 -115.849 -0 -0 72.4078 1.51209e-05 9.89815 -17.7368 -3.04282 -3.55578e-06 -41.2714 
